# xmcd
#
# Track frame offsets:
#	24861
#	40749
#	52290
#	63796
#	75725
#	84764
#	93503
#	102914
#	115640
#	129753
#	147503
#	163172
#	176435
#
# Disc length: 2471 seconds
#
# Revision: 1
# Processed by: cddbd v1.5.2PL0 Copyright (c) Steve Scherf et al.
# Submitted via: audiograbber 1.80
#
DISCID=a6085c0d
DTITLE=Radio Playboys - Das ist, was ich am Westen mag
DYEAR=1900
DGENRE=
TTITLE0=Schäm dich!
TTITLE1=Leuchte, Texas Mond
TTITLE2=Muschi Muschi Muschi
TTITLE3=Atomkraft
TTITLE4=Ich komm aus dieser Welt nicht lebend weg
TTITLE5=Irrsinn
TTITLE6=Die Wabash Cannonball
TTITLE7=Rauch den ganzen Tag
TTITLE8=Die großen Kuchenberge
TTITLE9=Keine Wendemöglichkeiten
TTITLE10=Amphetamin Blues
TTITLE11=Wann darf ich gehn?
TTITLE12=Ich komm aus dieser Welt nicht lebend weg (demo version)
EXTD=Deutscher Country - von Ulrich Bassenge
EXTT0=
EXTT1=
EXTT2=
EXTT3=
EXTT4=
EXTT5=
EXTT6=
EXTT7=
EXTT8=
EXTT9=
EXTT10=
EXTT11=
EXTT12=
PLAYORDER=
